Coordinates
version=1
nRows=12
nColumns=24
inDegrees=yes

Units are S.I. units (second, meters, Newtons, ...)
Angles are in degrees.

endheader
time	pelvis_tilt	pelvis_list	pelvis_rotation	pelvis_tx	pelvis_ty	pelvis_tz	hip_flexion_r	hip_adduction_r	hip_rotation_r	knee_angle_r	ankle_angle_r	subtalar_angle_r	mtp_angle_r	hip_flexion_l	hip_adduction_l	hip_rotation_l	knee_angle_l	ankle_angle_l	subtalar_angle_l	mtp_angle_l	lumbar_extension	lumbar_bending	lumbar_rotation
      0.50800000	     -1.28639093	      2.44234602	      3.69298135	     -0.75965873	      1.02198792	      0.29255428	     21.81402009	     -0.08349557	     -6.86849115	      2.13369819	      4.60328180	      0.05072936	      9.09775536	     -9.75444748	      7.30294456	      5.12955298	    -12.41721940	     11.60793070	     -5.64169105	     -4.49581980	     -6.96784772	     -5.27678423	     -3.54255546
      0.51216667	     -1.21449814	      2.37120432	      3.77263456	     -0.75396509	      1.02185821	      0.29253871	     21.71917572	      0.05833667	     -6.75292456	      1.69971445	      4.76980148	     -0.15601982	      9.12177545	     -9.83212449	      7.19200400	      5.11385110	    -13.09057468	     11.60415635	     -5.52169665	     -4.47884001	     -6.98828434	     -5.18005046	     -3.58695322
      0.51633333	     -1.20426963	      2.27378066	      3.86955722	     -0.74823440	      1.02164597	      0.29255233	     21.66964045	      0.22220495	     -6.54880568	      1.26537190	      4.82594340	     -0.50884782	      9.18120919	     -9.78145550	      7.03674727	      4.96522492	    -13.88874649	     11.69105976	     -5.12494337	     -4.41230265	     -6.97236770	     -5.08063215	     -3.69274367
      0.52050000	     -1.12553515	      2.17942541	      3.96121691	     -0.74248158	      1.02156815	      0.29255663	     21.54471883	      0.38661141	     -6.36706951	      0.80382798	      4.77318782	     -0.93879132	      9.27619158	     -9.79298972	      6.88013522	      4.79263930	    -14.70416322	     11.71484477	     -4.78093571	     -4.28914322	     -7.01549191	     -4.97878185	     -3.75978136
      0.52466667	     -1.05992134	      2.06931919	      4.05477165	     -0.73667913	      1.02148672	      0.29255287	     21.42398228	      0.56465584	     -6.14398765	      0.32810910	      4.70551051	     -1.42328588	      9.39401559	     -9.77495886	      6.70822292	      4.64353100	    -15.54546050	     11.69392976	     -4.47980174	     -4.12099664	     -7.03168379	     -4.84866286	     -3.83068617
      0.52883333	     -0.96238376	      1.96627886	      4.15291879	     -0.73085463	      1.02148042	      0.29254872	     21.25369355	      0.73645244	     -5.89304949	     -0.13911019	      4.56886456	     -1.97962015	      9.53744528	     -9.77573243	      6.53808283	      4.49434417	    -16.41441243	     11.62869771	     -4.18945114	     -3.89658269	     -7.08838442	     -4.72362919	     -3.90424784
      0.53300000	     -0.89304851	      1.85339843	      4.25483464	     -0.72498758	      1.02145165	      0.29254642	     21.10409727	      0.91597686	     -5.61863844	     -0.60285043	      4.36602266	     -2.59607313	      9.69455684	     -9.72243589	      6.35494372	      4.32821345	    -17.32742679	     11.52761370	     -3.89525479	     -3.62771693	     -7.10040855	     -4.59021011	     -3.98323134
      0.53716667	     -0.77668139	      1.74448657	      4.35269152	     -0.71909137	      1.02150775	      0.29257106	     20.88660807	      1.09895132	     -5.31453330	     -1.04087171	      4.09168598	     -3.27837038	      9.87942853	     -9.70333637	      6.16656049	      4.14328776	    -18.26160360	     11.37940536	     -3.59275094	     -3.28331958	     -7.16921530	     -4.45543700	     -4.05203530
      0.54133333	     -0.68643865	      1.62752313	      4.45540108	     -0.71315401	      1.02155454	      0.29259785	     20.68646556	      1.28706447	     -5.00132841	     -1.46601352	      3.76039972	     -3.98201925	     10.06817640	     -9.63431977	      5.96550673	      3.94300469	    -19.23265235	     11.18010902	     -3.29939462	     -2.89938827	     -7.19857251	     -4.31752396	     -4.12905797
      0.54550000	     -0.54777450	      1.50051053	      4.56719258	     -0.70716547	      1.02170975	      0.29260365	     20.41937801	      1.48283957	     -4.74065361	     -1.86362337	      3.35732344	     -4.65680038	     12.00589730	     -9.61136347	      5.74376723	      3.75445529	    -20.19115417	     10.76996023	     -3.12834623	      1.31223046	     -7.27650999	     -4.14744705	     -4.15731987
      0.54966667	     -0.46066768	      1.39438320	      4.66392681	     -0.70118349	      1.02178503	      0.29268407	     20.20523276	      1.66356097	     -4.40170923	     -2.25603273	      2.93673610	     -5.37799985	     12.01356174	     -9.49045547	      5.53611127	      3.47805411	    -21.23676059	     10.47067520	     -2.78534935	      1.40482497	     -7.29664224	     -4.02937090	     -4.26321380
      0.55383333	     -0.35244611	      1.28209066	      4.77238104	     -0.69515738	      1.02193918	      0.29275858	     19.94596912	      1.84932841	     -4.06854850	     -2.60516642	      2.44425925	     -6.13416687	     12.04253872	     -9.38038935	      5.31368231	      3.22627909	    -22.29172586	     10.09059315	     -2.49823024	      1.58410803	     -7.33542761	     -3.89531338	     -4.32784183
